<svg width="155" height="26" viewBox="0 0 155 26" fill="none" xmlns="http://www.w3.org/2000/svg">
<path fill-rule="evenodd" clip-rule="evenodd" d="M52.1228 0.0715208V25.3961H44.969L35.8693 18.1278L39.6179 15.1375L47.5587 21.4615V4.00613L20.7461 25.4676H13.2489L44.9833 0.143064L52.1228 0.0715208ZM7.19675 0.0715208L16.3107 7.32552L12.5621 10.3301L4.60707 4.00613V21.4615L31.4053 0H38.9169L7.15383 25.3961H0V0.0715208H7.19675Z" fill="white"/>
<path fill-rule="evenodd" clip-rule="evenodd" d="M71.1935 0.0712891H71.3508V4.70698H69.4909C69.0291 4.71823 68.5903 4.91056 68.2691 5.24247C67.9479 5.57438 67.77 6.01927 67.7739 6.48114V8.2839H71.3508V12.3759H67.7739V25.4388H63.0953V12.3759H60.7489V8.2839H63.0953V4.70698C63.0801 4.11272 63.1826 3.52131 63.3969 2.96684C63.6112 2.41236 63.9331 1.90578 64.3441 1.47623C64.755 1.04668 65.2469 0.702662 65.7913 0.463999C66.3358 0.225336 66.922 0.0967393 67.5164 0.0856107H71.1935V0.0712891Z" fill="white"/>
<path d="M78.7217 8.28369H74.0717V25.4243H78.7217V8.28369Z" fill="white"/>
<path fill-rule="evenodd" clip-rule="evenodd" d="M91.0979 7.73969C94.8179 7.73969 97.4076 10.3151 97.4076 15.5803V25.424H92.7576V15.8951C92.7576 13.3197 91.5843 12.0034 89.6528 12.0034C87.7213 12.0034 86.1475 13.5057 86.1475 16.3672V25.424H81.5547V8.25477H86.1332V10.4295H86.2762C86.7688 9.59353 87.4751 8.90374 88.3224 8.43101C89.1698 7.95829 90.1278 7.71967 91.0979 7.73969Z" fill="white"/>
<path d="M124.048 0.0852051H119.398V25.4241H124.048V0.0852051Z" fill="white"/>
<path fill-rule="evenodd" clip-rule="evenodd" d="M112.058 8.26987V10.5019H111.915C111.386 9.65402 110.644 8.95958 109.762 8.48767C108.881 8.01575 107.892 7.7828 106.893 7.81202C102.686 7.81202 99.038 11.3174 99.038 16.8258C99.038 23.3072 103.33 25.9971 106.549 25.9971C107.6 26.0289 108.641 25.7967 109.579 25.3218C110.516 24.8469 111.319 24.1444 111.915 23.2786H112.058V25.4247H116.522V8.25555L112.058 8.26987ZM107.995 21.8765C105.133 21.8765 103.702 19.4442 103.702 16.9403C103.702 14.4365 105.133 12.0042 107.995 12.0042C110.298 12.0042 112.087 13.9643 112.087 16.9689C112.087 19.9735 110.169 21.8765 107.995 21.8765Z" fill="white"/>
<path d="M78.7217 0.0852051H74.0717V4.70657H78.7217V0.0852051Z" fill="white"/>
<path fill-rule="evenodd" clip-rule="evenodd" d="M140.702 7.6971C141.44 7.63666 142.182 7.7236 142.886 7.95286C143.59 8.18212 144.241 8.54911 144.801 9.03246C145.362 9.51582 145.821 10.1059 146.151 10.7683C146.482 11.4307 146.677 12.1522 146.726 12.8908H142.634C142.639 12.6392 142.595 12.389 142.502 12.1549C142.41 11.9207 142.272 11.7075 142.096 11.5275C141.92 11.3476 141.71 11.2046 141.478 11.107C141.246 11.0094 140.997 10.9592 140.745 10.9592C140.54 10.9397 140.332 10.9614 140.136 11.0231C139.939 11.0848 139.757 11.1853 139.599 11.3186C139.442 11.452 139.313 11.6155 139.22 11.7995C139.126 11.9835 139.071 12.1843 139.057 12.39C139.057 13.3629 139.572 13.9639 142.362 14.9654C145.839 16.1529 147.112 17.97 147.112 20.4452C147.112 23.5929 144.808 25.9537 140.745 25.9537C136.682 25.9537 134.55 23.6644 134.378 20.3451H138.542C138.521 20.6536 138.566 20.9631 138.674 21.2529C138.782 21.5426 138.951 21.8059 139.169 22.0253C139.387 22.2446 139.649 22.415 139.938 22.5249C140.227 22.6349 140.536 22.6819 140.845 22.6629C141.091 22.6789 141.338 22.6434 141.57 22.5587C141.801 22.474 142.013 22.342 142.19 22.171C142.368 22 142.508 21.7939 142.602 21.5657C142.695 21.3375 142.74 21.0924 142.734 20.8458C142.734 19.6583 141.947 18.9429 139.472 18.0845C136.367 17.04 134.75 15.4375 134.75 12.7477C134.75 9.7431 137.168 7.6971 140.702 7.6971Z" fill="white"/>
<path d="M131.516 8.28369H126.866V25.4243H131.516V8.28369Z" fill="white"/>
<path d="M131.516 0.0852051H126.866V4.70657H131.516V0.0852051Z" fill="white"/>
<path d="M152.163 0.186325C151.71 0.186325 151.267 0.320592 150.891 0.572135C150.514 0.823679 150.221 1.18121 150.048 1.59952C149.875 2.01782 149.829 2.47811 149.918 2.92217C150.006 3.36624 150.224 3.77412 150.544 4.09428C150.864 4.41443 151.272 4.63247 151.716 4.7208C152.16 4.80913 152.621 4.7638 153.039 4.59053C153.457 4.41727 153.815 4.12385 154.066 3.74739C154.318 3.37093 154.452 2.92833 154.452 2.47556C154.454 2.1744 154.396 1.87587 154.282 1.59727C154.167 1.31867 153.999 1.06554 153.786 0.852586C153.573 0.639632 153.32 0.471093 153.041 0.356721C152.763 0.24235 152.464 0.184424 152.163 0.186325ZM152.163 4.36416C151.789 4.36416 151.424 4.2534 151.114 4.04587C150.803 3.83835 150.561 3.5434 150.418 3.1983C150.275 2.8532 150.238 2.47346 150.31 2.1071C150.383 1.74075 150.563 1.40424 150.827 1.14011C151.092 0.875983 151.428 0.696116 151.794 0.623244C152.161 0.550371 152.54 0.587755 152.886 0.7307C153.231 0.873644 153.526 1.11572 153.733 1.4263C153.941 1.73688 154.051 2.10203 154.051 2.47556C154.051 2.97645 153.852 3.45682 153.498 3.81101C153.144 4.16519 152.664 4.36416 152.163 4.36416ZM153.021 2.10355C153.026 2.00596 153.009 1.90856 152.973 1.81783C152.937 1.72711 152.882 1.64515 152.811 1.57744C152.741 1.50974 152.657 1.45783 152.565 1.42519C152.473 1.39255 152.375 1.37992 152.277 1.38816H151.405V3.63448H151.819V2.84755H152.063L152.635 3.63448H153.093L152.52 2.80463C152.605 2.79955 152.688 2.77693 152.764 2.7382C152.84 2.69946 152.907 2.64544 152.96 2.57957C153.014 2.51369 153.054 2.43737 153.076 2.35544C153.099 2.27351 153.105 2.18773 153.093 2.10355H153.021ZM151.819 1.77448H152.263C152.315 1.76393 152.369 1.76507 152.42 1.77779C152.472 1.79052 152.52 1.81452 152.561 1.84807C152.602 1.88162 152.635 1.92387 152.657 1.97177C152.68 2.01967 152.692 2.07202 152.692 2.12503C152.692 2.17804 152.68 2.23037 152.657 2.27827C152.635 2.32616 152.602 2.36842 152.561 2.40196C152.52 2.43551 152.472 2.45951 152.42 2.47224C152.369 2.48497 152.315 2.48611 152.263 2.47556H151.819V1.77448Z" fill="white"/>
</svg>
