<svg width="154" height="28" viewBox="0 0 154 28" fill="none" xmlns="http://www.w3.org/2000/svg">
<path fill-rule="evenodd" clip-rule="evenodd" d="M52.6215 1.23735V26.2372H45.5594L36.5764 19.0621L40.2769 16.1101L48.1158 22.3531V5.12151L21.6471 26.3078H14.246L45.5735 1.30798L52.6215 1.23735ZM8.27147 1.23735L17.2686 8.39834L13.568 11.3644L5.71499 5.12151V22.3531L32.1696 1.16675H39.5849L8.2291 26.2372H1.16699V1.23735H8.27147Z" fill="#2C59D2"/>
<path fill-rule="evenodd" clip-rule="evenodd" d="M71.4464 1.23706H71.6017V5.81331H69.7656C69.3098 5.82442 68.8766 6.01428 68.5595 6.34194C68.2424 6.66959 68.0668 7.10878 68.0707 7.56472V9.34437H71.6017V13.3839H68.0707V26.2793H63.452V13.3839H61.1357V9.34437H63.452V5.81331C63.437 5.22667 63.5382 4.64285 63.7498 4.09548C63.9614 3.54811 64.2791 3.04803 64.6848 2.62399C65.0905 2.19994 65.5761 1.86034 66.1135 1.62473C66.651 1.38913 67.2297 1.26218 67.8165 1.2512H71.4464V1.23706Z" fill="#151D3C"/>
<path d="M78.8785 9.34424H74.2881V26.265H78.8785V9.34424Z" fill="#151D3C"/>
<path fill-rule="evenodd" clip-rule="evenodd" d="M91.0966 8.8073C94.7689 8.8073 97.3254 11.3497 97.3254 16.5474V26.2648H92.7351V16.8581C92.7351 14.3158 91.5768 13.0163 89.67 13.0163C87.7633 13.0163 86.2097 14.4994 86.2097 17.3242V26.2648H81.6758V9.31577H86.1955V11.4627H86.3368C86.823 10.6374 87.5202 9.95643 88.3568 9.48976C89.1933 9.0231 90.1389 8.78754 91.0966 8.8073Z" fill="#151D3C"/>
<path d="M123.624 1.25073H119.033V26.2647H123.624V1.25073Z" fill="#151D3C"/>
<path fill-rule="evenodd" clip-rule="evenodd" d="M111.788 9.33038V11.5338H111.646C111.124 10.6968 110.391 10.0112 109.522 9.54538C108.652 9.07951 107.675 8.84955 106.689 8.87839C102.536 8.87839 98.9346 12.3388 98.9346 17.7766C98.9346 24.1749 103.172 26.8303 106.35 26.8303C107.387 26.8617 108.415 26.6325 109.34 26.1637C110.266 25.6948 111.058 25.0013 111.646 24.1467H111.788V26.2653H116.194V9.31624L111.788 9.33038ZM107.776 22.7625C104.951 22.7625 103.539 20.3614 103.539 17.8896C103.539 15.4179 104.951 13.0168 107.776 13.0168C110.05 13.0168 111.816 14.9518 111.816 17.9179C111.816 20.884 109.923 22.7625 107.776 22.7625Z" fill="#151D3C"/>
<path d="M78.8785 1.25073H74.2881V5.81285H78.8785V1.25073Z" fill="#151D3C"/>
<path fill-rule="evenodd" clip-rule="evenodd" d="M140.065 8.76522C140.793 8.70555 141.526 8.79139 142.221 9.0177C142.916 9.24402 143.559 9.6063 144.112 10.0835C144.665 10.5606 145.118 11.1431 145.444 11.797C145.771 12.4509 145.963 13.1632 146.011 13.8923H141.972C141.978 13.6439 141.934 13.3969 141.842 13.1658C141.751 12.9347 141.615 12.7242 141.441 12.5465C141.267 12.3689 141.06 12.2277 140.831 12.1314C140.602 12.0351 140.356 11.9855 140.108 11.9855C139.905 11.9662 139.7 11.9876 139.506 12.0486C139.312 12.1095 139.132 12.2087 138.976 12.3403C138.821 12.472 138.694 12.6334 138.602 12.815C138.51 12.9966 138.455 13.1949 138.441 13.398C138.441 14.3584 138.949 14.9516 141.704 15.9403C145.136 17.1126 146.393 18.9064 146.393 21.3499C146.393 24.4572 144.119 26.7877 140.108 26.7877C136.096 26.7877 133.992 24.5278 133.822 21.251H137.932C137.912 21.5556 137.956 21.8611 138.063 22.1472C138.17 22.4332 138.336 22.6931 138.552 22.9097C138.767 23.1262 139.026 23.2944 139.311 23.4029C139.596 23.5115 139.902 23.5579 140.206 23.5392C140.449 23.5549 140.693 23.5199 140.922 23.4363C141.15 23.3527 141.359 23.2223 141.534 23.0535C141.71 22.8847 141.848 22.6812 141.94 22.456C142.033 22.2308 142.077 21.9887 142.071 21.7454C142.071 20.5731 141.294 19.8669 138.85 19.0194C135.786 17.9883 134.19 16.4064 134.19 13.7511C134.19 10.785 136.577 8.76522 140.065 8.76522Z" fill="#151D3C"/>
<path d="M130.996 9.34424H126.405V26.265H130.996V9.34424Z" fill="#151D3C"/>
<path d="M130.996 1.25073H126.405V5.81285H130.996V1.25073Z" fill="#151D3C"/>
<path d="M151.378 1.35039C150.931 1.35039 150.494 1.48293 150.122 1.73125C149.751 1.97957 149.461 2.33252 149.29 2.74546C149.119 3.1584 149.074 3.61278 149.162 4.05115C149.249 4.48953 149.464 4.89218 149.78 5.20823C150.096 5.52428 150.499 5.73953 150.937 5.82672C151.376 5.91392 151.83 5.86917 152.243 5.69812C152.656 5.52708 153.009 5.23743 153.257 4.86579C153.505 4.49416 153.638 4.05723 153.638 3.61027C153.64 3.31297 153.583 3.01827 153.47 2.74324C153.357 2.46821 153.19 2.21833 152.98 2.00811C152.77 1.79788 152.52 1.6315 152.245 1.5186C151.97 1.40569 151.675 1.34851 151.378 1.35039ZM151.378 5.47465C151.009 5.47465 150.649 5.36531 150.342 5.16045C150.036 4.95559 149.797 4.66442 149.656 4.32374C149.514 3.98307 149.478 3.6082 149.549 3.24654C149.621 2.88488 149.799 2.55268 150.06 2.29194C150.32 2.0312 150.653 1.85364 151.014 1.7817C151.376 1.70977 151.751 1.74667 152.092 1.88778C152.432 2.02889 152.723 2.26787 152.928 2.57447C153.133 2.88106 153.242 3.24153 153.242 3.61027C153.242 4.10474 153.046 4.57895 152.696 4.92859C152.347 5.27824 151.872 5.47465 151.378 5.47465ZM152.225 3.24303C152.23 3.14669 152.214 3.05054 152.178 2.96098C152.142 2.87142 152.088 2.79051 152.018 2.72367C151.949 2.65683 151.866 2.60559 151.775 2.57337C151.684 2.54115 151.587 2.52868 151.491 2.53681H150.629V4.75433H151.039V3.97749H151.279L151.844 4.75433H152.296L151.731 3.93512C151.815 3.9301 151.897 3.90778 151.972 3.86954C152.046 3.83129 152.112 3.77797 152.165 3.71294C152.218 3.64791 152.257 3.57257 152.28 3.49169C152.302 3.41081 152.308 3.32613 152.296 3.24303H152.225ZM151.039 2.91817H151.477C151.528 2.90776 151.581 2.90889 151.632 2.92145C151.683 2.93401 151.73 2.95771 151.771 2.99083C151.811 3.02394 151.844 3.06565 151.866 3.11294C151.889 3.16022 151.9 3.2119 151.9 3.26423C151.9 3.31656 151.889 3.36822 151.866 3.4155C151.844 3.46279 151.811 3.5045 151.771 3.53762C151.73 3.57073 151.683 3.59443 151.632 3.60699C151.581 3.61956 151.528 3.62068 151.477 3.61027H151.039V2.91817Z" fill="#151D3C"/>
</svg>
